<svg width="121" height="41" viewBox="0 0 121 41" fill="none" xmlns="http://www.w3.org/2000/svg">
<path d="M50.3556 4.93844V7.91193H56.1733V11.7645H50.3556V15.0483H56.949V19.1077H45.2878V0.878997H56.949V4.93844H50.3556ZM64.5211 15.2293H70.1836V19.1077H59.4532V0.878997H64.5211V15.2293ZM77.222 0.878997V19.1077H72.1542V0.878997H77.222ZM86.9858 19.2887C84.8656 19.2887 83.1246 18.7888 81.7628 17.7891C80.4011 16.772 79.6685 15.3241 79.565 13.4452H84.969C85.0207 14.083 85.2103 14.5484 85.5379 14.8414C85.8654 15.1345 86.2877 15.281 86.8048 15.281C87.2702 15.281 87.6495 15.1689 87.9425 14.9449C88.2528 14.7035 88.4079 14.376 88.4079 13.9623C88.4079 13.4279 88.158 13.0142 87.6581 12.7212C87.1582 12.4282 86.348 12.1007 85.2276 11.7387C84.0382 11.3422 83.0729 10.963 82.3317 10.601C81.6077 10.2218 80.9699 9.67878 80.4183 8.97204C79.8839 8.24806 79.6168 7.30861 79.6168 6.15369C79.6168 4.98154 79.9098 3.98176 80.4959 3.15436C81.0819 2.30972 81.8921 1.67193 82.9264 1.24099C83.9606 0.810047 85.1328 0.594577 86.4428 0.594577C88.5631 0.594577 90.2523 1.09447 91.5107 2.09424C92.7863 3.07679 93.4671 4.46441 93.5533 6.25712H88.0459C88.0287 5.70552 87.8563 5.29181 87.5288 5.01601C87.2185 4.74021 86.8134 4.60231 86.3135 4.60231C85.9343 4.60231 85.624 4.71436 85.3827 4.93844C85.1414 5.16253 85.0207 5.48143 85.0207 5.89513C85.0207 6.23988 85.15 6.54154 85.4086 6.8001C85.6844 7.04143 86.0205 7.2569 86.417 7.44651C86.8134 7.61889 87.3995 7.84298 88.1752 8.11878C89.3301 8.51524 90.2782 8.9117 91.0194 9.30817C91.7779 9.6874 92.4243 10.2304 92.9586 10.9371C93.5102 11.6266 93.786 12.5057 93.786 13.5745C93.786 14.6604 93.5102 15.6344 92.9586 16.4962C92.4243 17.3581 91.64 18.039 90.6057 18.5389C89.5887 19.0388 88.3821 19.2887 86.9858 19.2887ZM59.6898 27.9552C59.6898 29.0584 59.4312 30.0668 58.9141 30.9804C58.4142 31.8768 57.6471 32.6008 56.6129 33.1524C55.5959 33.6867 54.3461 33.9539 52.8637 33.9539H50.3556V40.1077H45.2878V21.879H52.8637C54.3289 21.879 55.57 22.1376 56.587 22.6547C57.6213 23.1718 58.397 23.8872 58.9141 24.8008C59.4312 25.7144 59.6898 26.7658 59.6898 27.9552ZM52.3724 29.9203C53.8032 29.9203 54.5185 29.2653 54.5185 27.9552C54.5185 26.6279 53.8032 25.9643 52.3724 25.9643H50.3556V29.9203H52.3724ZM66.7936 25.9384V28.9119H72.6113V32.7645H66.7936V36.0483H73.387V40.1077H61.7258V21.879H73.387V25.9384H66.7936ZM92.7754 40.1077H87.7076L80.9591 29.9203V40.1077H75.8912V21.879H80.9591L87.7076 32.1957V21.879H92.7754V40.1077ZM102.54 40.2887C100.42 40.2887 98.6788 39.7888 97.317 38.7891C95.9553 37.772 95.2227 36.3241 95.1193 34.4452H100.523C100.575 35.083 100.765 35.5484 101.092 35.8414C101.42 36.1345 101.842 36.281 102.359 36.281C102.824 36.281 103.204 36.1689 103.497 35.9449C103.807 35.7035 103.962 35.376 103.962 34.9623C103.962 34.4279 103.712 34.0142 103.212 33.7212C102.712 33.4282 101.902 33.1007 100.782 32.7387C99.5924 32.3422 98.6271 31.963 97.8859 31.601C97.1619 31.2218 96.5241 30.6788 95.9725 29.972C95.4382 29.2481 95.171 28.3086 95.171 27.1537C95.171 25.9815 95.464 24.9818 96.0501 24.1544C96.6362 23.3097 97.4463 22.6719 98.4806 22.241C99.5148 21.81 100.687 21.5946 101.997 21.5946C104.117 21.5946 105.807 22.0945 107.065 23.0942C108.34 24.0768 109.021 25.4644 109.108 27.2571H103.6C103.583 26.7055 103.411 26.2918 103.083 26.016C102.773 25.7402 102.368 25.6023 101.868 25.6023C101.489 25.6023 101.178 25.7144 100.937 25.9384C100.696 26.1625 100.575 26.4814 100.575 26.8951C100.575 27.2399 100.704 27.5415 100.963 27.8001C101.239 28.0414 101.575 28.2569 101.971 28.4465C102.368 28.6189 102.954 28.843 103.729 29.1188C104.884 29.5152 105.832 29.9117 106.574 30.3082C107.332 30.6874 107.978 31.2304 108.513 31.9371C109.064 32.6266 109.34 33.5057 109.34 34.5745C109.34 35.6604 109.064 36.6344 108.513 37.4962C107.978 38.3581 107.194 39.039 106.16 39.5389C105.143 40.0388 103.936 40.2887 102.54 40.2887ZM114.153 40.3146C113.256 40.3146 112.532 40.0733 111.981 39.5906C111.446 39.0907 111.179 38.4615 111.179 37.7031C111.179 36.9446 111.446 36.3155 111.981 35.8156C112.532 35.3157 113.256 35.0657 114.153 35.0657C115.032 35.0657 115.738 35.3157 116.273 35.8156C116.824 36.3155 117.1 36.9446 117.1 37.7031C117.1 38.4443 116.824 39.0649 116.273 39.5647C115.738 40.0646 115.032 40.3146 114.153 40.3146Z" fill="#3B40C4"/>
<rect y="1.5" width="39" height="39" fill="#3B40C4"/>
<circle cx="11.0968" cy="30.0497" r="7.00276" fill="white"/>
</svg>
